#N canvas 650 93 623 316 12;
#X text 3 7 Recomendaciones: Los puertos deben ser de 4 cifras // Pueden
usar los mismos puertos de entrada y salida //;
#N canvas 741 282 327 409 reaper 0;
#X obj 34 359 noteout;
#X floatatom 80 334 5 0 0 1 MIDI_channel - -;
#X floatatom 34 114 5 0 127 1 MIDI_note - -;
#X floatatom 57 157 5 0 127 1 MIDI_velocity - -;
#X obj 128 24 bng 15 250 50 0 empty empty empty 17 7 0 10 -262144 -1
-1;
#X obj 128 44 t b b;
#X obj 28 8 inlet;
#X connect 1 0 0 2;
#X connect 2 0 0 0;
#X connect 3 0 0 1;
#X connect 4 0 5 0;
#X connect 5 0 2 0;
#X connect 5 1 3 0;
#X restore 123 216 pd reaper;
#N canvas 448 340 957 538 musescore 0;
#X text 459 408 Close the connection;
#X msg 465 431 disconnect;
#X floatatom 23 500 0 0 0 0 - - -;
#X text 124 472 UDP \, binary;
#X obj 23 471 netsend -u -b;
#X text 282 393 Connect to "localhost" port number, f 22;
#X obj 111 498 print backward;
#X msg 282 431 connect localhost 5282;
#X obj 24 272 oscformat;
#X obj 23 299 list prepend send;
#X obj 23 325 list trim;
#X msg 25 20 /actions/play;
#X obj 26 169 list split 1;
#X obj 67 218 list;
#X obj 25 197 list prepend set;
#X obj 24 245 list trim;
#X obj 25 218 t b l;
#X msg 133 20 /actions/pause;
#X msg 48 54 /actions/note-c;
#X msg 228 57 /actions/;
#X obj 94 325 send sendNet;
#X obj 593 119 inlet;
#X obj 714 151 % 12;
#X obj 754 150 / 12;
#X obj 714 187 *;
#X obj 595 193 % 12;
#X obj 595 219 sel 0 1 2 3 4 5 6 7 8 9 10 11;
#X obj 353 69 list prepend /actions/note-;
#X msg 353 95 \$1\$2;
#X msg 465 264 c;
#X msg 502 264 c#;
#X msg 540 264 d;
#X msg 576 263 d#;
#X msg 614 263 e;
#X msg 651 263 f;
#X msg 689 263 f#;
#X msg 725 262 g;
#X msg 765 262 g#;
#X msg 801 261 a;
#X msg 840 261 a#;
#X msg 876 260 b;
#X obj 804 322 send note;
#X obj 353 43 receive note;
#X connect 1 0 4 0;
#X connect 4 0 2 0;
#X connect 4 1 6 0;
#X connect 7 0 4 0;
#X connect 8 0 9 0;
#X connect 9 0 10 0;
#X connect 10 0 4 0;
#X connect 10 0 20 0;
#X connect 11 0 12 0;
#X connect 12 0 14 0;
#X connect 12 1 13 1;
#X connect 13 0 8 0;
#X connect 14 0 16 0;
#X connect 15 0 8 0;
#X connect 16 0 13 0;
#X connect 16 1 15 0;
#X connect 17 0 12 0;
#X connect 18 0 12 0;
#X connect 19 0 12 0;
#X connect 21 0 22 0;
#X connect 21 0 23 0;
#X connect 21 0 25 0;
#X connect 22 0 24 0;
#X connect 23 0 24 1;
#X connect 25 0 26 0;
#X connect 26 0 29 0;
#X connect 26 1 30 0;
#X connect 26 2 31 0;
#X connect 26 3 32 0;
#X connect 26 4 33 0;
#X connect 26 5 34 0;
#X connect 26 6 35 0;
#X connect 26 7 36 0;
#X connect 26 8 37 0;
#X connect 26 9 38 0;
#X connect 26 10 39 0;
#X connect 26 11 40 0;
#X connect 27 0 28 0;
#X connect 28 0 12 0;
#X connect 29 0 41 0;
#X connect 30 0 41 0;
#X connect 31 0 41 0;
#X connect 32 0 41 0;
#X connect 33 0 41 0;
#X connect 34 0 41 0;
#X connect 35 0 41 0;
#X connect 36 0 41 0;
#X connect 37 0 41 0;
#X connect 38 0 41 0;
#X connect 39 0 41 0;
#X connect 40 0 41 0;
#X connect 42 0 27 0;
#X restore 9 289 pd musescore;
#X floatatom 215 189 5 0 0 0 - - num;
#X text 3 45 1 puerto de entrada (viene de otra compu);
#X text 4 80 2 puerto de salida (va hacia la otra compu);
#X text 8 158 4 aquí pongan su nombre;
#X text 8 189 5 El número que mandan a otro;
#X obj 9 217 receive recibo;
#X obj 461 73 conexion;
#X text 501 82 ¿Está conectado?;
#X obj 461 113 desconectar;
#X text 482 113 Desconectar;
#X obj 9 262 spigot;
#X obj 48 241 tgl 15 0 empty empty empty 17 7 0 10 -262144 -1 -1 0
1;
#X text 67 239 click para mandar información;
#X obj 309 41 entrada;
#X obj 309 73 portIp;
#X obj 173 152 nombre;
#X text 102 108 3 dirección IP (no la propia);
#X connect 8 0 13 0;
#X connect 13 0 2 0;
#X connect 14 0 13 1;
#X coords 0 0 1 1 85 60 0;
