#N canvas 108 465 361 265 12;
#X obj 58 194 oscformat;
#X obj 58 222 send sendNet;
#X obj 58 119 fudiparse;
#X obj 58 96 list fromsymbol;
#X obj 58 143 list prepend set;
#X obj 58 167 list trim;
#X obj 50 50 cnv 15 150 30 empty empty empty 20 12 0 14 -4032 -66577
0;
#X symbolatom 72 56 15 0 0 0 - - -;
#X obj 243 118 loadbang;
#X obj 253 58 receive num;
#X msg 243 142 set ID;
#X connect 0 0 1 0;
#X connect 2 0 4 0;
#X connect 3 0 2 0;
#X connect 4 0 5 0;
#X connect 5 0 0 0;
#X connect 7 0 3 0;
#X connect 8 0 10 0;
#X connect 9 0 0 0;
#X connect 10 0 7 0;
#X coords 0 -1 1 1 150 30 2 50 50;
