#N canvas 179 351 565 381 12;
#X obj 54 209 list append;
#X obj 126 261 print;
#X obj 54 262 list trim;
#X obj 54 235 list prepend connect;
#X obj 54 288 send sendNet;
#X obj 171 184 fudiparse;
#X obj 171 161 list fromsymbol;
#X obj 54 183 fudiparse;
#X obj 54 160 list fromsymbol;
#X text 229 63 puerto de salida y dirección IP;
#X obj 50 50 cnv 15 150 60 empty empty empty 20 12 0 14 -257985 -4160
0;
#X symbolatom 72 58 15 0 0 0 - - -;
#X symbolatom 72 83 15 0 0 0 - - -;
#X obj 307 106 loadbang;
#X msg 363 130 set puertoSalida;
#X msg 307 130 set IP;
#X connect 0 0 3 0;
#X connect 2 0 4 0;
#X connect 2 0 1 0;
#X connect 3 0 2 0;
#X connect 5 0 0 1;
#X connect 6 0 5 0;
#X connect 7 0 0 0;
#X connect 8 0 7 0;
#X connect 11 0 6 0;
#X connect 12 0 8 0;
#X connect 13 0 15 0;
#X connect 13 0 14 0;
#X connect 14 0 11 0;
#X connect 15 0 12 0;
#X coords 0 -1 1 1 150 60 2 50 50;
